<?xml version="1.0" encoding="utf-8"?>
<!-- Generator: Adobe Illustrator 21.0.0, SVG Export Plug-In . SVG Version: 6.00 Build 0)  -->
<svg version="1.1" id="Layer_1" xmlns="http://www.w3.org/2000/svg" xmlns:xlink="http://www.w3.org/1999/xlink" x="0px" y="0px"
	 viewBox="0 0 600 400" style="enable-background:new 0 0 600 400;" xml:space="preserve">
<style type="text/css">
	.st0{fill:#E74C3C;}
	.st1{fill:#FFFFFF;}
</style>
<rect class="st0" width="600" height="400"/>
<g>
	<path class="st1" d="M211.7,176.5c-5.4,0-9.3,1.8-9.3,6c0,12.1,42.6,6,42.4,34.5c0,16.5-14.5,25.2-32.8,25.2
		c-13,0-25.8-3.9-34.9-11.3l7.5-15.6c8.4,6.4,19.2,10,28,10c5.8,0,10.2-1.9,10.2-6.3c0-12.9-41.8-6-41.8-34.3
		c0-16.6,14.2-25.2,31.8-25.2c11.1,0,22.5,3.3,31.5,9l-7.9,15.7C227.5,179.3,218.5,176.5,211.7,176.5z"/>
	<path class="st1" d="M271.6,160.6l19,58.8l18.9-58.8h22.9L302,241.2h-23.7l-30.6-80.5L271.6,160.6z"/>
	<path class="st1" d="M415.6,160.6v73.2c0,22.9-17.2,37.5-43,37.5c-13.6,0-25.8-4.3-35.1-10.6l8.5-16.2c7.3,5.2,15.9,8.1,25,8.1
		c13.2,0,21.6-7,21.6-18v-9.2c-5.4,7.5-13.6,11.7-24.3,11.7c-20.8,0-35.2-15.6-35.2-39c0-22.8,14.1-38.2,34.6-38.2
		c10.9-0.1,19.3,4.2,24.9,11.7v-10.9H415.6z M392.6,198.7c0-12.4-7.6-21-18.9-21c-11.3,0-18.9,8.7-19,21c0.2,12.3,7.6,20.8,19,20.8
		C385,219.5,392.6,211,392.6,198.7z"/>
</g>
</svg>
